TITLE ""
FILE "LR_black_phrase_E_C10.mp3" MP3
  TRACK 01 AUDIO
    TITLE "LR_black_phrase_E_C10_001"
    INDEX 01 00:00:00
  TRACK 02 AUDIO
    TITLE "LR_black_phrase_E_C10_002"
    INDEX 01 00:00:14
  TRACK 03 AUDIO
    TITLE "LR_black_phrase_E_C10_003"
    INDEX 01 00:01:41
  TRACK 04 AUDIO
    TITLE "LR_black_phrase_E_C10_004"
    INDEX 01 00:01:70
  TRACK 05 AUDIO
    TITLE "LR_black_phrase_E_C10_005"
    INDEX 01 00:03:67
  TRACK 06 AUDIO
    TITLE "LR_black_phrase_E_C10_006"
    INDEX 01 00:04:47
  TRACK 07 AUDIO
    TITLE "LR_black_phrase_E_C10_007"
    INDEX 01 00:06:46
  TRACK 08 AUDIO
    TITLE "LR_black_phrase_E_C10_008"
    INDEX 01 00:07:51
  TRACK 09 AUDIO
    TITLE "LR_black_phrase_E_C10_009"
    INDEX 01 00:08:63
  TRACK 10 AUDIO
    TITLE "LR_black_phrase_E_C10_010"
    INDEX 01 00:09:17
  TRACK 11 AUDIO
    TITLE "LR_black_phrase_E_C10_011"
    INDEX 01 00:11:08
  TRACK 12 AUDIO
    TITLE "LR_black_phrase_E_C10_012"
    INDEX 01 00:11:61
  TRACK 13 AUDIO
    TITLE "LR_black_phrase_E_C10_013"
    INDEX 01 00:13:52
  TRACK 14 AUDIO
    TITLE "LR_black_phrase_E_C10_014"
    INDEX 01 00:14:59
  TRACK 15 AUDIO
    TITLE "LR_black_phrase_E_C10_015"
    INDEX 01 00:16:07
  TRACK 16 AUDIO
    TITLE "LR_black_phrase_E_C10_016"
    INDEX 01 00:16:27
  TRACK 17 AUDIO
    TITLE "LR_black_phrase_E_C10_017"
    INDEX 01 00:18:47
  TRACK 18 AUDIO
    TITLE "LR_black_phrase_E_C10_018"
    INDEX 01 00:19:19
  TRACK 19 AUDIO
    TITLE "LR_black_phrase_E_C10_019"
    INDEX 01 00:21:38
  TRACK 20 AUDIO
    TITLE "LR_black_phrase_E_C10_020"
    INDEX 01 00:22:31
  TRACK 21 AUDIO
    TITLE "LR_black_phrase_E_C10_021"
    INDEX 01 00:23:51
  TRACK 22 AUDIO
    TITLE "LR_black_phrase_E_C10_022"
    INDEX 01 00:23:72
  TRACK 23 AUDIO
    TITLE "LR_black_phrase_E_C10_023"
    INDEX 01 00:26:10
  TRACK 24 AUDIO
    TITLE "LR_black_phrase_E_C10_024"
    INDEX 01 00:26:59
  TRACK 25 AUDIO
    TITLE "LR_black_phrase_E_C10_025"
    INDEX 01 00:28:71
  TRACK 26 AUDIO
    TITLE "LR_black_phrase_E_C10_026"
    INDEX 01 00:30:02
  TRACK 27 AUDIO
    TITLE "LR_black_phrase_E_C10_027"
    INDEX 01 00:31:25
  TRACK 28 AUDIO
    TITLE "LR_black_phrase_E_C10_028"
    INDEX 01 00:31:56
  TRACK 29 AUDIO
    TITLE "LR_black_phrase_E_C10_029"
    INDEX 01 00:33:65
  TRACK 30 AUDIO
    TITLE "LR_black_phrase_E_C10_030"
    INDEX 01 00:34:46
  TRACK 31 AUDIO
    TITLE "LR_black_phrase_E_C10_031"
    INDEX 01 00:36:55
  TRACK 32 AUDIO
    TITLE "LR_black_phrase_E_C10_032"
    INDEX 01 00:37:58
  TRACK 33 AUDIO
    TITLE "LR_black_phrase_E_C10_033"
    INDEX 01 00:38:64
  TRACK 34 AUDIO
    TITLE "LR_black_phrase_E_C10_034"
    INDEX 01 00:39:16
  TRACK 35 AUDIO
    TITLE "LR_black_phrase_E_C10_035"
    INDEX 01 00:41:09
  TRACK 36 AUDIO
    TITLE "LR_black_phrase_E_C10_036"
    INDEX 01 00:41:64
  TRACK 37 AUDIO
    TITLE "LR_black_phrase_E_C10_037"
    INDEX 01 00:43:57
  TRACK 38 AUDIO
    TITLE "LR_black_phrase_E_C10_038"
    INDEX 01 00:44:57
  TRACK 39 AUDIO
    TITLE "LR_black_phrase_E_C10_039"
    INDEX 01 00:45:74
  TRACK 40 AUDIO
    TITLE "LR_black_phrase_E_C10_040"
    INDEX 01 00:46:22
  TRACK 41 AUDIO
    TITLE "LR_black_phrase_E_C10_041"
    INDEX 01 00:48:43
  TRACK 42 AUDIO
    TITLE "LR_black_phrase_E_C10_042"
    INDEX 01 00:49:13
  TRACK 43 AUDIO
    TITLE "LR_black_phrase_E_C10_043"
    INDEX 01 00:51:33
  TRACK 44 AUDIO
    TITLE "LR_black_phrase_E_C10_044"
    INDEX 01 00:52:27
  TRACK 45 AUDIO
    TITLE "LR_black_phrase_E_C10_045"
    INDEX 01 00:53:34
  TRACK 46 AUDIO
    TITLE "LR_black_phrase_E_C10_046"
    INDEX 01 00:53:52
  TRACK 47 AUDIO
    TITLE "LR_black_phrase_E_C10_047"
    INDEX 01 00:55:41
  TRACK 48 AUDIO
    TITLE "LR_black_phrase_E_C10_048"
    INDEX 01 00:56:15
  TRACK 49 AUDIO
    TITLE "LR_black_phrase_E_C10_049"
    INDEX 01 00:58:02
  TRACK 50 AUDIO
    TITLE "LR_black_phrase_E_C10_050"
    INDEX 01 00:59:07
  TRACK 51 AUDIO
    TITLE "LR_black_phrase_E_C10_051"
    INDEX 01 01:00:09
  TRACK 52 AUDIO
    TITLE "LR_black_phrase_E_C10_052"
    INDEX 01 01:00:38
  TRACK 53 AUDIO
    TITLE "LR_black_phrase_E_C10_053"
    INDEX 01 01:02:04
  TRACK 54 AUDIO
    TITLE "LR_black_phrase_E_C10_054"
    INDEX 01 01:02:56
  TRACK 55 AUDIO
    TITLE "LR_black_phrase_E_C10_055"
    INDEX 01 01:04:24
  TRACK 56 AUDIO
    TITLE "LR_black_phrase_E_C10_056"
    INDEX 01 01:05:27
  TRACK 57 AUDIO
    TITLE "LR_black_phrase_E_C10_057"
    INDEX 01 01:06:46
  TRACK 58 AUDIO
    TITLE "LR_black_phrase_E_C10_058"
    INDEX 01 01:06:74
  TRACK 59 AUDIO
    TITLE "LR_black_phrase_E_C10_059"
    INDEX 01 01:09:37
  TRACK 60 AUDIO
    TITLE "LR_black_phrase_E_C10_060"
    INDEX 01 01:10:15
  TRACK 61 AUDIO
    TITLE "LR_black_phrase_E_C10_061"
    INDEX 01 01:12:51
  TRACK 62 AUDIO
    TITLE "LR_black_phrase_E_C10_062"
    INDEX 01 01:13:50
  TRACK 63 AUDIO
    TITLE "LR_black_phrase_E_C10_063"
    INDEX 01 01:14:64
  TRACK 64 AUDIO
    TITLE "LR_black_phrase_E_C10_064"
    INDEX 01 01:15:12
  TRACK 65 AUDIO
    TITLE "LR_black_phrase_E_C10_065"
    INDEX 01 01:17:60
  TRACK 66 AUDIO
    TITLE "LR_black_phrase_E_C10_066"
    INDEX 01 01:18:44
  TRACK 67 AUDIO
    TITLE "LR_black_phrase_E_C10_067"
    INDEX 01 01:21:28
  TRACK 68 AUDIO
    TITLE "LR_black_phrase_E_C10_068"
    INDEX 01 01:22:26
  TRACK 69 AUDIO
    TITLE "LR_black_phrase_E_C10_069"
    INDEX 01 01:23:37
  TRACK 70 AUDIO
    TITLE "LR_black_phrase_E_C10_070"
    INDEX 01 01:23:61
  TRACK 71 AUDIO
    TITLE "LR_black_phrase_E_C10_071"
    INDEX 01 01:26:10
  TRACK 72 AUDIO
    TITLE "LR_black_phrase_E_C10_072"
    INDEX 01 01:26:63
  TRACK 73 AUDIO
    TITLE "LR_black_phrase_E_C10_073"
    INDEX 01 01:29:12
  TRACK 74 AUDIO
    TITLE "LR_black_phrase_E_C10_074"
    INDEX 01 01:30:18
  TRACK 75 AUDIO
    TITLE "LR_black_phrase_E_C10_075"
    INDEX 01 01:31:42
  TRACK 76 AUDIO
    TITLE "LR_black_phrase_E_C10_076"
    INDEX 01 01:31:72
  TRACK 77 AUDIO
    TITLE "LR_black_phrase_E_C10_077"
    INDEX 01 01:33:65
  TRACK 78 AUDIO
    TITLE "LR_black_phrase_E_C10_078"
    INDEX 01 01:34:43
  TRACK 79 AUDIO
    TITLE "LR_black_phrase_E_C10_079"
    INDEX 01 01:36:34
  TRACK 80 AUDIO
    TITLE "LR_black_phrase_E_C10_080"
    INDEX 01 01:37:37
  TRACK 81 AUDIO
    TITLE "LR_black_phrase_E_C10_081"
    INDEX 01 01:38:44
  TRACK 82 AUDIO
    TITLE "LR_black_phrase_E_C10_082"
    INDEX 01 01:38:74
  TRACK 83 AUDIO
    TITLE "LR_black_phrase_E_C10_083"
    INDEX 01 01:41:74
  TRACK 84 AUDIO
    TITLE "LR_black_phrase_E_C10_084"
    INDEX 01 01:42:52
  TRACK 85 AUDIO
    TITLE "LR_black_phrase_E_C10_085"
    INDEX 01 01:45:50
  TRACK 86 AUDIO
    TITLE "LR_black_phrase_E_C10_086"
    INDEX 01 01:46:50
  TRACK 87 AUDIO
    TITLE "LR_black_phrase_E_C10_087"
    INDEX 01 01:47:71
  TRACK 88 AUDIO
    TITLE "LR_black_phrase_E_C10_088"
    INDEX 01 01:48:15
  TRACK 89 AUDIO
    TITLE "LR_black_phrase_E_C10_089"
    INDEX 01 01:50:34
  TRACK 90 AUDIO
    TITLE "LR_black_phrase_E_C10_090"
    INDEX 01 01:51:06
  TRACK 91 AUDIO
    TITLE "LR_black_phrase_E_C10_091"
    INDEX 01 01:53:24
  TRACK 92 AUDIO
    TITLE "LR_black_phrase_E_C10_092"
    INDEX 01 01:54:22
  TRACK 93 AUDIO
    TITLE "LR_black_phrase_E_C10_093"
    INDEX 01 01:55:27
  TRACK 94 AUDIO
    TITLE "LR_black_phrase_E_C10_094"
    INDEX 01 01:55:47
  TRACK 95 AUDIO
    TITLE "LR_black_phrase_E_C10_095"
    INDEX 01 01:57:58
  TRACK 96 AUDIO
    TITLE "LR_black_phrase_E_C10_096"
    INDEX 01 01:58:30
  TRACK 97 AUDIO
    TITLE "LR_black_phrase_E_C10_097"
    INDEX 01 02:00:38
  TRACK 98 AUDIO
    TITLE "LR_black_phrase_E_C10_098"
    INDEX 01 02:01:42
  TRACK 99 AUDIO
    TITLE "LR_black_phrase_E_C10_099"
    INDEX 01 02:02:63
  TRACK 100 AUDIO
    TITLE "LR_black_phrase_E_C10_100"
    INDEX 01 02:03:15
  TRACK 101 AUDIO
    TITLE "LR_black_phrase_E_C10_101"
    INDEX 01 02:05:08
  TRACK 102 AUDIO
    TITLE "LR_black_phrase_E_C10_102"
    INDEX 01 02:05:63
  TRACK 103 AUDIO
    TITLE "LR_black_phrase_E_C10_103"
    INDEX 01 02:07:56
  TRACK 104 AUDIO
    TITLE "LR_black_phrase_E_C10_104"
    INDEX 01 02:08:59
  TRACK 105 AUDIO
    TITLE "LR_black_phrase_E_C10_105"
    INDEX 01 02:09:63
  TRACK 106 AUDIO
    TITLE "LR_black_phrase_E_C10_106"
    INDEX 01 02:10:17
  TRACK 107 AUDIO
    TITLE "LR_black_phrase_E_C10_107"
    INDEX 01 02:12:61
  TRACK 108 AUDIO
    TITLE "LR_black_phrase_E_C10_108"
    INDEX 01 02:13:39
  TRACK 109 AUDIO
    TITLE "LR_black_phrase_E_C10_109"
    INDEX 01 02:16:10
  TRACK 110 AUDIO
    TITLE "LR_black_phrase_E_C10_110"
    INDEX 01 02:17:07
  TRACK 111 AUDIO
    TITLE "LR_black_phrase_E_C10_111"
    INDEX 01 02:18:26
  TRACK 112 AUDIO
    TITLE "LR_black_phrase_E_C10_112"
    INDEX 01 02:18:50
  TRACK 113 AUDIO
    TITLE "LR_black_phrase_E_C10_113"
    INDEX 01 02:20:47
  TRACK 114 AUDIO
    TITLE "LR_black_phrase_E_C10_114"
    INDEX 01 02:21:19
  TRACK 115 AUDIO
    TITLE "LR_black_phrase_E_C10_115"
    INDEX 01 02:23:18
  TRACK 116 AUDIO
    TITLE "LR_black_phrase_E_C10_116"
    INDEX 01 02:24:15
  TRACK 117 AUDIO
    TITLE "LR_black_phrase_E_C10_117"
    INDEX 01 02:25:40
  TRACK 118 AUDIO
    TITLE "LR_black_phrase_E_C10_118"
    INDEX 01 02:25:62
  TRACK 119 AUDIO
    TITLE "LR_black_phrase_E_C10_119"
    INDEX 01 02:28:17
  TRACK 120 AUDIO
    TITLE "LR_black_phrase_E_C10_120"
    INDEX 01 02:28:70
  TRACK 121 AUDIO
    TITLE "LR_black_phrase_E_C10_121"
    INDEX 01 02:31:25
